<svg width="58" height="58" viewBox="0 0 58 58" fill="none" xmlns="http://www.w3.org/2000/svg">
<g clip-path="url(#clip0)">
<path d="M25.9259 35.1572L19.4009 28.6322C19.0448 28.2762 19.0448 27.6988 19.4009 27.3427L20.6904 26.0531C21.0465 25.697 21.6239 25.697 21.9799 26.0531L26.5706 30.6438L36.6175 20.5969C36.9736 20.2408 37.551 20.2408 37.9071 20.5969L39.1966 21.8865C39.5527 22.2426 39.5527 22.8199 39.1966 23.1761L27.2154 35.1573C26.8593 35.5134 26.2819 35.5134 25.9259 35.1572Z" fill="#97CE51"/>
<path d="M58.1649 27.826C57.9911 20.2388 54.872 13.168 49.3817 7.91684C43.8995 2.67316 36.7004 -0.134981 29.1113 0.00485018C21.5194 -0.135866 14.3235 2.6736 8.84124 7.91684C3.35098 13.168 0.231862 20.2388 0.0580605 27.826L0.0576172 27.8499V27.8738C0.0975205 35.6066 3.41438 42.9579 9.17421 48.1105V55.1211C9.17421 56.4818 10.1261 57.6672 11.4376 57.9398C11.6318 57.9801 11.8273 58 12.0215 58C12.5496 58 13.0683 57.8527 13.5246 57.5681L19.17 54.0484C22.3539 55.1609 25.6769 55.7246 29.0545 55.7246H29.0962C29.2833 55.7282 29.4686 55.73 29.6548 55.73C37.0445 55.7295 44.0307 52.9311 49.3817 47.8131C54.872 42.5619 57.9911 35.4911 58.1649 27.9039L58.1658 27.865L58.1649 27.826ZM47.0234 45.3572C42.1889 49.9809 35.8381 52.4532 29.145 52.3236L29.1082 52.3231C29.09 52.3231 29.0723 52.3231 29.0545 52.3231C25.9296 52.3231 22.8575 51.7784 19.9237 50.7044C19.1939 50.4372 18.3985 50.5186 17.7419 50.9279L12.5824 54.1449V47.6963C12.5824 46.9772 12.2689 46.2927 11.7223 45.8183C6.51664 41.3016 3.50837 34.7645 3.46625 27.88C3.62454 21.2079 6.37033 14.9916 11.1995 10.3732C16.0336 5.74901 22.3867 3.27806 29.0776 3.40683L29.1113 3.40771L29.145 3.40683C35.8425 3.27541 42.1889 5.74901 47.0234 10.3732C51.8482 14.9881 54.5936 21.1991 54.7563 27.8654C54.594 34.5313 51.8482 40.7423 47.0234 45.3572Z" fill="#97CE51"/>
</g>
<defs>
<clipPath id="clip0">
<rect width="58" height="58" fill="white"/>
</clipPath>
</defs>
</svg>
